<svg width="100" height="100" viewBox="0 0 100 100" fill="none" xmlns="http://www.w3.org/2000/svg">
    <g clip-path="url(#clip0_1_38)">
        <rect width="100" height="100" fill="white"/>
        <path fill-rule="evenodd" clip-rule="evenodd" d="M1 0C0.447715 0 0 0.447714 0 0.999999V99C0 99.5523 0.447714 100 0.999999 100H99C99.5523 100 100 99.5523 100 99V1C100 0.447715 99.5523 0 99 0H1ZM35.7778 29.5554C35.7778 26.119 32.992 23.3332 29.5556 23.3332C26.1191 23.3332 23.3334 26.119 23.3334 29.5554C23.3334 32.9919 26.1191 35.7777 29.5556 35.7777H35.7778V29.5554ZM41.1111 29.5554V35.7777H58.8889V29.5554C58.8889 23.1735 64.0626 17.9999 70.4445 17.9999C76.8263 17.9999 82 23.1735 82 29.5554C82 35.9374 76.8263 41.111 70.4445 41.111H64.2223V58.8888H70.4445C76.8263 58.8888 82 64.0625 82 70.4443C82 76.8262 76.8263 81.9999 70.4445 81.9999C64.0626 81.9999 58.8889 76.8262 58.8889 70.4443V64.2221H41.1111V70.4443C41.1111 76.8262 35.9376 81.9999 29.5556 81.9999C23.1736 81.9999 18 76.8262 18 70.4443C18 64.0625 23.1736 58.8888 29.5556 58.8888H35.7778V41.111H29.5556C23.1736 41.111 18 35.9374 18 29.5554C18 23.1735 23.1736 17.9999 29.5556 17.9999C35.9376 17.9999 41.1111 23.1735 41.1111 29.5554ZM58.8889 41.111H41.1111V58.8888H58.8889V41.111ZM64.2223 29.5554V35.7777H70.4445C73.8809 35.7777 76.6667 32.9919 76.6667 29.5554C76.6667 26.119 73.8809 23.3332 70.4445 23.3332C67.008 23.3332 64.2223 26.119 64.2223 29.5554ZM70.4445 64.2221H64.2223V70.4443C64.2223 73.8808 67.008 76.6665 70.4445 76.6665C73.8809 76.6665 76.6667 73.8808 76.6667 70.4443C76.6667 67.0079 73.8809 64.2221 70.4445 64.2221ZM35.7778 70.4443V64.2221H29.5556C26.1191 64.2221 23.3334 67.0079 23.3334 70.4443C23.3334 73.8808 26.1191 76.6665 29.5556 76.6665C32.992 76.6665 35.7778 73.8808 35.7778 70.4443Z" fill="#0247FE"/>
    </g>
    <defs>
        <clipPath id="clip0_1_38">
            <rect width="100" height="100" fill="white"/>
        </clipPath>
    </defs>
</svg>
