<svg width="20" height="19" viewBox="0 0 20 19" fill="none" xmlns="http://www.w3.org/2000/svg">
    <path d="M10 1.5C7.58676 1.5 5.61684 3.39994 5.50502 5.78512C5.48627 6.18524 5.15641 6.5 4.75585 6.5H4.5C2.84315 6.5 1.5 7.84315 1.5 9.5C1.5 11.1569 2.84315 12.5 4.5 12.5H8.07645C8.02612 12.826 8 13.1599 8 13.5C8 13.6682 8.00639 13.835 8.01894 14H4.5C2.01472 14 0 11.9853 0 9.5C0 7.15641 1.79155 5.23125 4.07981 5.01936C4.54808 2.17188 7.02022 0 10 0C12.9798 0 15.4519 2.17189 15.9202 5.01936C18.2085 5.23125 20 7.15641 20 9.5C20 9.66643 19.991 9.83074 19.9734 9.99248C19.5031 9.26011 18.8898 8.6283 18.1729 8.13647C17.6764 7.16504 16.6659 6.5 15.5 6.5H15.2442C14.8436 6.5 14.5137 6.18524 14.495 5.78512C14.3832 3.39994 12.4132 1.5 10 1.5ZM20 13.5C20 16.5376 17.5376 19 14.5 19C11.4624 19 9 16.5376 9 13.5C9 10.4624 11.4624 8 14.5 8C17.5376 8 20 10.4624 20 13.5ZM15 10.5C15 10.2239 14.7761 10 14.5 10C14.2239 10 14 10.2239 14 10.5V15.2929L12.3536 13.6464C12.1583 13.4512 11.8417 13.4512 11.6464 13.6464C11.4512 13.8417 11.4512 14.1583 11.6464 14.3536L14.1464 16.8536C14.3417 17.0488 14.6583 17.0488 14.8536 16.8536L17.3536 14.3536C17.5488 14.1583 17.5488 13.8417 17.3536 13.6464C17.1583 13.4512 16.8417 13.4512 16.6464 13.6464L15 15.2929V10.5Z" fill="#212121"/>
</svg>

